<?xml version="1.0" encoding="UTF-8" standalone="no"?>
<!-- Created with Inkscape (http://www.inkscape.org/) -->

<svg
   width="185.19585mm"
   height="57.181423mm"
   viewBox="0 0 185.19585 57.181423"
   version="1.1"
   id="svg1"
   xmlns="http://www.w3.org/2000/svg"
   xmlns:svg="http://www.w3.org/2000/svg">
  <g
     id="layer3"
     style="display:inline"
     transform="translate(-9.407285,-66.974401)">
    <path
       d="M 9.4072852,123.18293 53.36386,67.139908 l 19.573672,0.335037 1.661125,36.505185 -6.685975,5.17538 -1.21766,-40.627011 C 51.956908,84.805364 34.233584,106.66267 21.581099,123.18296 Z"
       style="font-weight:bold;font-size:17.4729px;font-family:Manrope;-inkscape-font-specification:'Manrope Bold';white-space:pre;stroke-width:1.71369"
       id="path1-4" />
  </g>
  <defs
     id="defs1" />
  <g
     id="layer5"
     transform="translate(-9.407285,-66.974401)">
    <path
       d="m 101.2269,103.38041 0.24413,-35.927611 h 21.25936 c 0.50023,0 1.14337,0.02648 1.92945,0.07724 0.78604,0.02648 1.51255,0.103859 2.17951,0.231494 2.97751,0.488933 5.43097,1.5568 7.36039,3.203588 1.95324,1.646802 3.39436,3.731059 4.32334,6.252732 0.9528,2.49598 1.42919,5.274995 1.42919,8.337036 0,4.528715 -1.05999,8.427032 -3.17996,11.694952 -2.11999,3.242149 -5.37141,5.249229 -9.75432,6.021189 l -3.68018,0.34725 h -13.25583 l -0.24413,-0.23803 z m 29.79286,19.65242 -10.14733,-22.618 8.75386,-2.084251 11.14778,24.702251 z M 110.08198,94.934022 h 12.29112 c 0.47641,0 1.01236,-0.02648 1.60785,-0.07738 0.59551,-0.05172 1.14336,-0.154636 1.64358,-0.308819 1.4292,-0.38613 2.54874,-1.067867 3.35862,-2.04565 0.83371,-0.977824 1.4173,-2.084258 1.75078,-3.319383 0.35727,-1.235126 0.53594,-2.444499 0.53594,-3.628106 0,-1.183662 -0.17864,-2.393036 -0.53594,-3.628161 -0.33348,-1.260836 -0.91707,-2.380166 -1.75078,-3.357955 -0.80988,-0.977824 -1.92942,-1.659698 -3.35862,-2.04565 -0.50022,-0.154183 -1.04807,-0.244308 -1.64358,-0.270376 -0.59549,-0.05172 -1.13144,-0.07724 -1.60785,-0.07724 h -12.29112 z"
       style="font-weight:bold;font-size:17.4729px;font-family:Manrope;-inkscape-font-specification:'Manrope Bold';white-space:pre;fill:#000000;stroke-width:1.46205"
       id="path1-41" />
  </g>
  <g
     id="layer4"
     transform="translate(-9.407285,-66.974401)">
    <path
       d="m 60.634738,122.99794 m 27.282432,1.15789 c -4.344979,0 -8.172118,-0.90059 -11.481376,-2.7018 -3.284,-1.8012 -5.860688,-4.33573 -7.730039,-7.60365 -1.844106,-3.26792 -2.766145,-7.1019 -2.766145,-11.50197 V 67.495133 l 9.24572,-0.07731 v 34.698907 c 0,2.08427 0.341061,3.9498 1.023099,5.59663 0.707325,1.64679 1.654636,3.04919 2.841934,4.20708 1.187298,1.1322 2.551417,1.99418 4.09237,2.58601 1.540968,0.59183 3.132451,0.88775 4.774437,0.88775 1.692543,0 3.296635,-0.296 4.812331,-0.88775 1.540967,-0.61754 2.905086,-1.49243 4.092384,-2.62461 1.187284,-1.1579 2.121973,-2.5603 2.804026,-4.20709 0.682069,-1.6468 1.023099,-3.49946 1.023099,-5.55802 V 67.417821 h 9.24574 v 34.930509 c 0,4.40006 -0.93469,8.23405 -2.80405,11.50197 -1.84407,3.26792 -4.42078,5.80245 -7.730034,7.60365 -3.284,1.8012 -7.098503,2.7018 -11.443496,2.7018 z"
       style="font-weight:bold;font-size:17.4729px;font-family:Manrope;-inkscape-font-specification:'Manrope Bold';white-space:pre;stroke-width:1.50564"
       id="path1-48" />
  </g>
  <g
     id="g2"
     transform="translate(-9.407285,-66.974401)">
    <path
       d="m 131.04879,123.01742 43.95658,-56.043014 19.57365,0.335024 0.0241,55.94438 -8.05013,0.12801 0.14651,-55.973731 c -14.73806,16.276847 -30.82442,39.089081 -43.4769,55.609371 z"
       style="font-weight:bold;font-size:17.4729px;font-family:Manrope;-inkscape-font-specification:'Manrope Bold';white-space:pre;stroke-width:1.71369"
       id="path2" />
  </g>
</svg>
