<?xml version="1.0" encoding="utf-8"?>
<!-- Generator: Adobe Illustrator 28.1.0, SVG Export Plug-In . SVG Version: 6.00 Build 0)  -->
<svg version="1.1" id="digital" xmlns="http://www.w3.org/2000/svg" xmlns:xlink="http://www.w3.org/1999/xlink" x="0px" y="0px"
	 viewBox="0 0 274.6 288" style="enable-background:new 0 0 274.6 288;" xml:space="preserve">
<style type="text/css">
	.st0{fill:#E31837;}
</style>
<g>
	<path d="M17.7,56.8h2c4.1,0,5-1.6,5-5.8V38.1L9,10C5.8,4.3,4.7,3.5,0.7,3.5H0V1.1c3.5,0.1,6.9,0.2,10.3,0.2c3.4,0,7-0.2,10.4-0.2
		v2.5h-1.5c-1.7,0-3,0.6-3,2.6c0,1.2,1,3.4,1.8,4.8l12.1,21.8l11.3-21.6c0.7-1.2,2.2-4.3,2.2-5.8c0-1.4-1-1.9-3.2-1.9h-1.6V1.1
		c3.4,0.1,5.6,0.2,8.1,0.2c2.7,0,5.5-0.2,8.1-0.2v2.5h-2c-3.4,0-4.1,1.1-6.6,5.8L31.9,36.4V51c0,4.8,1.8,5.8,5,5.8h1.6v2.5
		c-3.4-0.1-7-0.2-10.4-0.2c-3.6,0-7.4,0.2-10.4,0.2V56.8z"/>
	<path d="M98.4,0c16.3,0,30.5,13.2,30.5,30.2c0,14.4-11.1,30.2-30.7,30.2c-17.7,0-30.4-13.3-30.4-29.5C67.7,12.6,82.2,0,98.4,0z
		 M98.1,3.4c-11.4,0-22.2,7-22.2,26c0,13.2,8.7,27.8,22.7,27.8c15.1,0,22.1-11.1,22.1-26.2C120.7,17.9,112.4,3.4,98.1,3.4z"/>
	<path d="M148.3,56.8h1.5c3.8,0,5.4-1.4,5.4-6.7V10.2c0-5.3-1.6-6.7-5.4-6.7h-1.5V1.1c2.9,0.1,6.8,0.2,10.5,0.2
		c5.5,0,9.4-0.2,13-0.2c14.5,0,17.1,11.4,17.1,15.1c0,10.7-7.5,14-11.6,15.3l11,18.1c4.5,7.4,5.8,7.9,12.4,8.3v1.7
		c-1.6,0-3,0.1-4.6,0.1c-7.2,0-10.6-0.9-14.9-8l-9.6-15.6c-1.9-3-2.9-3.2-9.2-3.3v15.5c0,7.8,1.4,8.7,4.7,8.7h2.4v2.5
		c-3.6-0.1-7-0.2-10.6-0.2c-3.7,0-7.6,0.2-10.5,0.2V56.8z M162.4,29c1.4,0.5,3.4,0.6,5.6,0.6c7.4,0,13.4-3.4,13.4-11.9
		c0-3.6-2.5-13.6-13.8-13.6c-2,0-3.5,0.2-5.2,0.3V29z"/>
	<path d="M218.4,56.8h1.5c3.8,0,5.4-1.4,5.4-6.7V10.2c0-5.3-1.6-6.7-5.4-6.7h-1.5V1.1c2.9,0.1,6.8,0.2,10.5,0.2
		c3.6,0,7-0.2,10.6-0.2v2.5h-2.4c-3.3,0-4.7,0.9-4.7,8.7v19.2l17.9-20c0.8-0.9,3.9-4.2,3.9-5.8c0-1.5-1.1-2.1-2.7-2.1h-1.5V1.1
		c3,0.1,6.5,0.2,9.6,0.2c3.3,0,6.5-0.2,9.7-0.2v2.5H268c-4,0-5.4,0.7-10.2,5.8L242,25.9l21.1,24.7c4.6,5.4,7,6.2,10.3,6.2h1.2v2.5
		c-2.6-0.1-5.3-0.2-7.9-0.2s-5.3,0.2-7.9,0.2c-0.4-2.4-0.7-3.6-5.3-8.9l-16.8-19.2l-4.3,4.5v12.5c0,7.8,1.4,8.7,4.7,8.7h2.4v2.5
		c-3.6-0.1-7-0.2-10.6-0.2c-3.7,0-7.6,0.2-10.5,0.2V56.8z"/>
</g>
<g>
	<path class="st0" d="M178.2,262.6c-35.7,0-66.6-22.1-66.6-70.3V77.6H31.9V288h210.4v-76.8C235.9,241.8,213.7,262.6,178.2,262.6z"/>
	<path class="st0" d="M178.2,219.5c19.2,0,25-16.8,25-33.3V77.6h-49v108.6C154.3,203.4,160.4,219.5,178.2,219.5z"/>
</g>
</svg>
